<mxfile host="Electron" agent="Mozilla/5.0 (Windows NT 10.0; Win64; x64) AppleWebKit/537.36 (KHTML, like Gecko) draw.io/26.0.3 Chrome/130.0.6723.137 Electron/33.2.1 Safari/537.36" version="26.0.3" pages="2">
  <diagram name="ページ1" id="ARbLDbAjKFJsnGkvmP3v">
    <mxGraphModel dx="1434" dy="870" grid="1" gridSize="10" guides="1" tooltips="1" connect="1" arrows="1" fold="1" page="1" pageScale="1" pageWidth="980" pageHeight="690" math="1" shadow="0">
      <root>
        <mxCell id="0" />
        <mxCell id="1" parent="0" />
        <mxCell id="OvQetlTKiYUnL95RvIVZ-1" value="\begin{align}&#xa;F&#xa;\end{align}" style="text;align=center;verticalAlign=middle;whiteSpace=wrap;rounded=0;" vertex="1" parent="1">
          <mxGeometry x="10" y="10" width="310" height="70" as="geometry" />
        </mxCell>
      </root>
    </mxGraphModel>
  </diagram>
  <diagram id="buPbZbTYLZrIAYk1ANOu" name="テンプレート置き場">
    <mxGraphModel dx="1434" dy="870" grid="1" gridSize="10" guides="1" tooltips="1" connect="1" arrows="1" fold="1" page="1" pageScale="1" pageWidth="980" pageHeight="690" math="1" shadow="0">
      <root>
        <mxCell id="0" />
        <mxCell id="1" parent="0" />
        <mxCell id="4tzrUo-pC9YsKyFaga9V-1" value="template" style="text;align=center;verticalAlign=middle;whiteSpace=wrap;rounded=0;" vertex="1" parent="1">
          <mxGeometry x="10" y="10" width="190" height="30" as="geometry" />
        </mxCell>
      </root>
    </mxGraphModel>
  </diagram>
</mxfile>
